<?xml version="1.0" standalone="no"?>
<!DOCTYPE svg PUBLIC "-//W3C//DTD SVG 20010904//EN"
 "http://www.w3.org/TR/2001/REC-SVG-20010904/DTD/svg10.dtd">
<svg version="1.0" xmlns="http://www.w3.org/2000/svg"
 width="512.000000pt" height="512.000000pt" viewBox="0 0 512.000000 512.000000"
 preserveAspectRatio="xMidYMid meet">

<g transform="translate(0.000000,512.000000) scale(0.100000,-0.100000)"
fill="#000000" stroke="none">
<path d="M2474 4786 c-129 -32 -231 -130 -268 -256 -13 -43 -23 -210 -13 -210
1 0 34 7 72 15 113 25 368 30 512 11 67 -9 128 -19 137 -22 14 -5 16 5 16 72
0 182 -68 297 -215 365 -73 34 -168 44 -241 25z"/>
<path d="M2324 4185 c-471 -83 -846 -412 -989 -865 -47 -152 -55 -241 -55
-646 0 -283 -4 -391 -15 -455 -48 -272 -202 -560 -437 -816 -92 -100 -111
-137 -116 -230 -3 -60 0 -80 20 -125 33 -72 66 -108 130 -143 l53 -30 1635 -3
1635 -2 62 30 c102 51 163 153 163 274 -1 81 -25 132 -103 214 -234 245 -391
528 -447 801 -18 89 -20 138 -20 478 0 428 -8 509 -65 680 -141 422 -475 722
-915 824 -114 27 -419 35 -536 14z"/>
<path d="M1980 702 c0 -15 74 -130 112 -176 47 -56 157 -129 241 -161 190 -71
422 -43 590 71 38 26 85 67 105 91 38 45 112 160 112 175 0 4 -261 8 -580 8
-319 0 -580 -4 -580 -8z"/>
</g>
</svg>
