<?xml version="1.0" standalone="no"?>
<!DOCTYPE svg PUBLIC "-//W3C//DTD SVG 20010904//EN"
 "http://www.w3.org/TR/2001/REC-SVG-20010904/DTD/svg10.dtd">
<svg version="1.0" xmlns="http://www.w3.org/2000/svg"
 width="500.000000pt" height="500.000000pt" viewBox="0 0 500.000000 500.000000"
 preserveAspectRatio="xMidYMid meet">

<g transform="translate(0.000000,500.000000) scale(0.100000,-0.100000)"
fill="#000000" stroke="none">
<path d="M1525 4989 c-260 -36 -532 -136 -735 -272 -397 -264 -658 -649 -757
-1116 -24 -114 -27 -147 -27 -341 -1 -228 8 -296 59 -480 171 -610 673 -1084
1297 -1224 487 -109 994 -6 1399 285 l66 47 211 -211 211 -212 -19 -23 c-11
-13 -24 -41 -30 -63 -10 -35 -8 -53 7 -114 3 -11 285 -300 626 -642 l622 -623
45 0 45 0 228 228 c175 175 227 233 227 252 0 20 -131 156 -632 656 -586 584
-636 632 -678 642 -54 13 -111 3 -153 -29 l-29 -21 -209 208 -209 209 58 80
c249 341 370 763 334 1166 -71 795 -628 1420 -1409 1580 -114 23 -433 34 -548
18z m500 -383 c259 -58 478 -175 666 -353 208 -199 348 -454 406 -740 25 -124
25 -396 0 -513 -61 -286 -185 -519 -382 -715 -155 -155 -328 -263 -528 -330
-148 -49 -245 -66 -397 -72 -238 -9 -434 34 -655 142 -154 76 -269 160 -388
284 -177 187 -295 410 -353 666 -25 112 -30 382 -9 507 63 378 278 708 604
928 132 88 346 173 516 205 105 19 419 14 520 -9z"/>
</g>
</svg>
